<svg t="1714019731419" class="icon" viewBox="0 0 1024 1024" version="1.1" xmlns="http://www.w3.org/2000/svg" p-id="4378" width="64" height="64"><path d="M1007.771071 944.287425L774.765083 711.281437c61.317365-75.62475 98.107784-171.688623 98.107784-275.928144C872.872867 196.215569 678.70121 0 437.519574 0S0.122368 196.215569 0.122368 437.397206s196.215569 437.397206 437.397206 437.397205c104.239521 0 200.303393-36.790419 273.884231-96.063872l233.005988 233.005988c8.175649 8.175649 20.439122 12.263473 32.702595 12.263473 12.263473 0 22.483034-4.087824 32.702595-12.263473 16.351297-20.439122 16.351297-49.053892-2.043912-67.449102z m-433.309382-179.864271c-42.922156 18.39521-89.932136 28.61477-138.986028 28.61477s-94.01996-10.219561-138.986028-28.61477c-42.922156-18.39521-79.712575-42.922156-112.415169-75.624751s-57.229541-71.536926-75.624751-112.415169C92.098416 531.417166 81.878855 484.407186 81.878855 437.397206s10.219561-94.01996 28.61477-138.986028c18.39521-42.922156 42.922156-79.712575 75.624751-112.41517s71.536926-57.229541 112.41517-75.624751C343.499614 91.976048 388.465681 81.756487 437.519574 81.756487s94.01996 10.219561 138.986028 28.61477c42.922156 18.39521 79.712575 42.922156 112.415169 75.624751s57.229541 69.493014 75.624751 112.41517c18.39521 42.922156 28.61477 89.932136 28.61477 138.986028s-10.219561 94.01996-28.61477 138.986028c-18.39521 42.922156-42.922156 79.712575-75.624751 112.415169-32.702595 30.658683-71.536926 57.229541-114.459082 75.624751z" p-id="4379" fill="#ffffff"></path></svg>