<svg t="1714062228461" fill="#7986AC" class="icon" viewBox="0 0 1024 1024" version="1.1" xmlns="http://www.w3.org/2000/svg" p-id="6029" width="64" height="64"><path d="M979.2 388.8c-8-20.8-30.4-33.6-56-30.4-20.8 8-33.6 30.4-30.4 56 12.8 38.4 17.6 81.6 17.6 120 0 59.2-12.8 120-38.4 174.4-68.8 140.8-204.8 225.6-363.2 225.6-216 4.8-400-179.2-400-401.6s179.2-400 401.6-400c59.2 0 120 12.8 171.2 38.4h-102.4c-25.6 0-43.2 17.6-43.2 43.2s17.6 43.2 43.2 43.2h171.2c25.6 0 43.2-17.6 43.2-43.2V43.2c0-25.6-17.6-43.2-43.2-43.2s-43.2 17.6-43.2 43.2v43.2C648 60.8 584 48 515.2 48 244.8 46.4 24 264 24 532.8S244.8 1024 513.6 1024c187.2 0 358.4-107.2 440-273.6 33.6-68.8 46.4-136 46.4-212.8 0-51.2-8-102.4-20.8-148.8z" p-id="6030"></path></svg>